<?xml version="1.0" encoding="UTF-8" standalone="no"?>
<!DOCTYPE svg PUBLIC "-//W3C//DTD SVG 1.1//EN" "http://www.w3.org/Graphics/SVG/1.1/DTD/svg11.dtd">
<svg width="100%" height="100%" viewBox="0 0 1040 545" version="1.1" xmlns="http://www.w3.org/2000/svg" xmlns:xlink="http://www.w3.org/1999/xlink" xml:space="preserve" xmlns:serif="http://www.serif.com/" style="fill-rule:evenodd;clip-rule:evenodd;stroke-linecap:round;stroke-linejoin:round;stroke-miterlimit:1.5;">
    <g transform="matrix(1,0,0,1,-709.009,-649.621)">
        <g transform="matrix(1,0,0,1,-750.13,-807.469)">
            <path d="M1465,1743.32C1450.63,1743.58 1494.73,1714.82 1501.4,1710.18C1523.22,1695.03 1594.32,1653.07 1623.13,1668.69C1638.58,1677.06 1579.17,1731.22 1545.66,1750.76C1536.42,1756.15 1535.26,1748.91 1535.52,1748.91C1552.85,1748.91 1573.62,1770.91 1589.01,1777.5" style="fill:none;stroke:black;stroke-width:6px;"/>
        </g>
        <g transform="matrix(1,0,0,1,-750.13,-807.469)">
            <path d="M1676.24,1640.04C1670.06,1635.43 1679.59,1643.07 1684.91,1644.71C1697.39,1648.55 1711.47,1647.11 1723.64,1651.16" style="fill:none;stroke:black;stroke-width:6px;"/>
        </g>
        <g transform="matrix(1,0,0,1,-750.13,-807.469)">
            <path d="M1658.56,1679.58C1639.6,1676.1 1671.23,1713.87 1685.83,1713.87" style="fill:none;stroke:black;stroke-width:6px;"/>
        </g>
        <g transform="matrix(1,0,0,1,-750.13,-807.469)">
            <path d="M1667.21,1695.37C1630.49,1684.91 1747,1658.7 1756.84,1678.83C1758.87,1682.98 1757.84,1689.65 1755.92,1693.59C1739.35,1727.49 1703.35,1752.44 1690.44,1788.57C1687.61,1796.5 1692.57,1798.06 1698.75,1792.26" style="fill:none;stroke:black;stroke-width:6px;"/>
        </g>
        <g transform="matrix(1,0,0,1,-750.13,-807.469)">
            <path d="M1791.91,1644.34C1773.99,1627.97 1825.06,1661.28 1830.62,1666.84" style="fill:none;stroke:black;stroke-width:6px;"/>
        </g>
        <g transform="matrix(1,0,0,1,-750.13,-807.469)">
            <path d="M1794.45,1764.62C1775.51,1764.52 1838.66,1724.62 1843.53,1721.25" style="fill:none;stroke:black;stroke-width:6px;"/>
        </g>
        <g transform="matrix(1,0,0,1,-750.13,-807.469)">
            <path d="M1881.41,1630.76C1879.86,1628.62 1875.7,1625.44 1877.65,1623.5C1882.37,1618.78 1980.28,1593.07 1991.07,1593.07" style="fill:none;stroke:black;stroke-width:6px;"/>
        </g>
        <g transform="matrix(1,0,0,1,-750.13,-807.469)">
            <path d="M1871.76,1665.86C1854.45,1666.1 1905.73,1653.84 1911.77,1652.09C1939.34,1644.08 1966.85,1637 1993.84,1627.19" style="fill:none;stroke:black;stroke-width:6px;"/>
        </g>
        <g transform="matrix(1,0,0,1,-750.13,-807.469)">
            <path d="M1947.11,1647.76C1940.18,1645.03 1946.73,1649.42 1947.73,1652.09C1952.04,1663.58 1946.71,1680.89 1942.2,1691.74C1934.38,1710.53 1923.14,1733.24 1925.6,1733.24" style="fill:none;stroke:black;stroke-width:6px;"/>
        </g>
        <g transform="matrix(1,0,0,1,-750.13,-807.469)">
            <path d="M2039.68,1617.91C2011.97,1601.64 2072.57,1612.89 2080.52,1623.5" style="fill:none;stroke:black;stroke-width:6px;"/>
        </g>
        <g transform="matrix(1,0,0,1,-750.13,-807.469)">
            <path d="M2026.99,1705.78C2015.4,1705.26 2038.56,1700.35 2047.33,1694.51C2066.66,1681.61 2085.17,1667.74 2104.5,1654.85" style="fill:none;stroke:black;stroke-width:6px;"/>
        </g>
        <g transform="matrix(1,0,0,1,-750.13,-807.469)">
            <path d="M2144.36,1577.51C2129.95,1570.2 2145.57,1634.14 2152.45,1641.02" style="fill:none;stroke:black;stroke-width:6px;"/>
        </g>
        <g transform="matrix(1,0,0,1,-750.13,-807.469)">
            <path d="M2201.14,1551.69C2207.63,1545.7 2212.17,1557.64 2214.24,1595.84C2216.04,1629.11 2203.36,1671.26 2179.2,1695.43" style="fill:none;stroke:black;stroke-width:6px;"/>
        </g>
        <g transform="matrix(1,0,0,1,-750.13,-807.469)">
            <path d="M2289.78,1540.33C2288.76,1536.11 2291.53,1575.05 2290.78,1583.85C2288.25,1613.37 2281.41,1638.4 2260.35,1659.46" style="fill:none;stroke:black;stroke-width:6px;"/>
        </g>
        <g transform="matrix(1,0,0,1,-750.13,-807.469)">
            <path d="M2332.76,1557.33C2333.5,1552.25 2338.72,1575.11 2341.5,1580.16C2350.5,1596.53 2363.39,1613.36 2382.99,1613.36" style="fill:none;stroke:black;stroke-width:6px;"/>
        </g>
        <g transform="matrix(1,0,0,1,-750.13,-807.469)">
            <path d="M2375.78,1477.42C2356.38,1454.98 2362.68,1507.57 2361.78,1518.37" style="fill:none;stroke:black;stroke-width:6px;"/>
        </g>
        <g transform="matrix(1,0,0,1,-750.13,-807.469)">
            <path d="M2412.03,1460.77C2410.63,1459.24 2410.65,1460.29 2408.82,1463.96C2400.75,1480.09 2401.44,1501.84 2401.44,1519.3" style="fill:none;stroke:black;stroke-width:6px;"/>
        </g>
        <g transform="matrix(1,0,0,1,-750.13,-807.469)">
            <path d="M2421.45,1574.94C2419.35,1573.04 2412.43,1569.09 2415.27,1569.09C2441.96,1569.09 2468.97,1566.51 2495.5,1563.56" style="fill:none;stroke:black;stroke-width:6px;"/>
        </g>
        <g transform="matrix(1,0,0,1,-750.13,-807.469)">
            <path d="M1792.03,1835.71C1753.13,1779.39 1683.84,1860.19 1706.52,1890.44C1724.54,1914.47 1758.02,1881.46 1767.19,1866.17C1771.13,1859.61 1772.66,1852.2 1774.36,1844.82C1775,1842.06 1777.1,1833.83 1776.21,1836.52C1766.81,1864.72 1786.87,1998.82 1755,1998.82C1742.58,1998.82 1732.09,1992.49 1722.72,1984.99C1684.14,1954.12 1741.12,1921.25 1768.83,1909.37" style="fill:none;stroke:black;stroke-width:6px;"/>
        </g>
        <g transform="matrix(1,0,0,1,-750.13,-807.469)">
            <path d="M1802.03,1832.8C1803.74,1844.8 1808.12,1855.97 1810.33,1867.88C1811.12,1872.15 1811.46,1876.5 1812.17,1880.79C1814.13,1892.53 1801.11,1893.64 1801.11,1881.71C1801.11,1854.08 1819.85,1840.21 1845.37,1840.21" style="fill:none;stroke:black;stroke-width:6px;"/>
        </g>
        <g transform="matrix(1,0,0,1,-750.13,-807.469)">
            <path d="M1853.58,1841.97C1842.84,1842.5 1881.56,1862.76 1892.4,1838.37C1893.73,1835.37 1894.37,1828.41 1892.4,1825.45C1891.06,1823.44 1888.03,1823.04 1885.94,1823.61C1855.38,1831.95 1820.56,1887.18 1890.56,1878.94C1898.6,1877.99 1903.23,1876.03 1909.92,1871.56" style="fill:none;stroke:black;stroke-width:6px;"/>
        </g>
        <g transform="matrix(1,0,0,1,-750.13,-807.469)">
            <path d="M1909.39,1841.85C1902.97,1842.84 1907.41,1848.64 1911.77,1849.43C1928.7,1852.51 1980.58,1837.82 1968.94,1811.62C1958.53,1788.19 1867.48,1870.07 1948.65,1862.34L1967.1,1858.65" style="fill:none;stroke:black;stroke-width:6px;"/>
        </g>
        <g transform="matrix(1,0,0,1,-750.13,-807.469)">
            <path d="M1990.12,1804.76C1990.23,1799.03 1991.9,1812.12 1992,1812.55C1994.36,1823.6 1997.53,1834.35 1997.53,1845.74L1997.53,1850.35C1997.53,1850.35 2006.37,1811.44 2022.43,1806.09C2024.16,1805.51 2049.44,1826.68 2060.24,1828.22" style="fill:none;stroke:black;stroke-width:6px;"/>
        </g>
        <g transform="matrix(1,0,0,1,-750.13,-807.469)">
            <path d="M2092.46,1780.53C2091.44,1779.14 2089.8,1821.21 2112.05,1821.21C2125.66,1821.21 2134.01,1789.12 2134.01,1778.42C2134.01,1775.95 2133.39,1783.34 2133.09,1785.8C2132.18,1793.01 2127.09,1807.94 2136.78,1811.62C2154.2,1818.25 2178.7,1796.31 2172.74,1778.42" style="fill:none;stroke:black;stroke-width:6px;"/>
        </g>
        <g transform="matrix(1,0,0,1,-750.13,-807.469)">
            <path d="M2191.37,1784.82C2189.81,1816 2244.1,1784.63 2230.84,1758.14C2221.35,1739.19 2158.75,1785.48 2193.03,1781.19" style="fill:none;stroke:black;stroke-width:6px;"/>
        </g>
        <g transform="matrix(1,0,0,1,-750.13,-807.469)">
            <path d="M2238.5,1743.81C2231.04,1758.22 2257.73,1788.42 2254.81,1791.34C2250.74,1795.41 2244.42,1771.95 2247.6,1766.66C2254.27,1755.53 2271.24,1754.01 2282.48,1752.6" style="fill:none;stroke:black;stroke-width:6px;"/>
        </g>
        <g transform="matrix(1,0,0,1,-750.13,-807.469)">
            <path d="M2309.7,1666.5C2308.82,1663.47 2303.3,1657.62 2306.45,1657.62C2315.08,1657.62 2313.74,1688.01 2313.83,1689.9C2314.61,1705.04 2314.44,1815.62 2326.74,1821.77" style="fill:none;stroke:black;stroke-width:6px;"/>
        </g>
        <g transform="matrix(1,0,0,1,-750.13,-807.469)">
            <path d="M2372.97,1700.39C2370.34,1669.83 2330.65,1743.04 2332.25,1754.23C2334.16,1767.61 2370.71,1764.37 2378.38,1763.67" style="fill:none;stroke:black;stroke-width:6px;"/>
        </g>
        <g transform="matrix(1,0,0,1,-750.13,-807.469)">
            <path d="M2466.62,1707.1C2451.92,1698.02 2402.94,1720.37 2402.36,1731.39C2402.2,1734.4 2406.38,1734.66 2408.09,1734.85C2423.73,1736.59 2474.17,1722.08 2481.7,1742.17C2488.66,1760.72 2461.59,1796.66 2441.09,1785.8C2427.79,1778.76 2434.75,1752.49 2442.94,1744.3C2444.5,1742.74 2448.47,1740.62 2448.47,1740.62C2448.47,1740.62 2446.01,1743.69 2444.78,1745.23C2435.88,1756.35 2427.58,1767.95 2418.96,1779.35C2399.08,1805.61 2365.5,1836.44 2356.25,1868.8" style="fill:none;stroke:black;stroke-width:6px;"/>
        </g>
    </g>
</svg>
