<?xml version="1.0" encoding="UTF-8" standalone="no"?>
<!DOCTYPE svg PUBLIC "-//W3C//DTD SVG 1.1//EN" "http://www.w3.org/Graphics/SVG/1.1/DTD/svg11.dtd">
<svg width="100%" height="100%" viewBox="0 0 773 515" version="1.1" xmlns="http://www.w3.org/2000/svg" xmlns:xlink="http://www.w3.org/1999/xlink" xml:space="preserve" xmlns:serif="http://www.serif.com/" style="fill-rule:evenodd;clip-rule:evenodd;stroke-linejoin:round;stroke-miterlimit:2;">
    <g transform="matrix(1,0,0,1,-694.116,-583.646)">
        <path d="M699.953,632.751C699.942,632.819 699.924,632.887 699.902,632.955C699.634,633.771 698.753,634.215 697.938,633.947C697.342,633.761 697.042,633.378 696.866,633.001C696.691,632.623 696.638,632.149 696.866,631.588C697.06,631.108 698.078,630.084 699.837,628.896C705.779,624.881 721.061,616.68 726.939,613.16C736.817,607.244 751.976,598.209 766.95,591.722C777.68,587.074 788.337,583.788 797,583.646C798.851,583.646 800.354,585.149 800.354,587C800.354,588.851 798.851,590.354 797,590.354C789.025,590.223 779.151,593.057 769.139,597.011C754.188,602.915 738.978,611.333 729.061,616.84C723.103,620.149 707.638,627.799 701.598,631.598C700.973,631.99 700.318,632.473 699.953,632.751ZM699.12,631.079L699.124,631.081L699.12,631.079ZM699.024,631.035C698.988,631.019 698.95,631.005 698.911,630.991L699.024,631.035Z"/>
        <path d="M699.212,672.343C699.372,672.738 699.707,673.515 700.091,674.113C702.509,677.877 708.364,683.517 714.476,688.027C719.512,691.744 724.647,694.785 728,694.646C729.851,694.646 731.354,696.149 731.354,698C731.354,699.851 729.851,701.354 728,701.354C725.581,701.253 722.479,700.158 719.199,698.145C714.45,695.229 709.097,690.575 704.749,685.929C700.473,681.361 697.162,676.841 696.206,674.078C695.69,672.587 695.75,671.416 696.194,670.671C696.64,669.924 697.393,669.309 698.713,669.29C699.57,669.242 700.305,669.9 700.353,670.757C700.394,671.502 699.904,672.154 699.212,672.343Z"/>
        <path d="M712.87,785.356C714.468,783.248 716.032,781.128 717.573,778.989C721.823,773.09 725.903,767.053 730.063,760.737C746.498,735.784 763.344,711.153 779.514,686.075C790.274,669.388 800.734,652.505 810.573,635.197C811.631,633.337 814.632,626.918 818.216,624.495C820.358,623.047 822.681,622.749 825.033,624.623C825.707,625.155 825.822,626.134 825.29,626.808C824.758,627.482 823.779,627.597 823.105,627.065C821.585,625.876 820.155,626.768 818.871,628.075C816.253,630.741 814.24,635.341 813.427,636.803C803.713,654.256 793.372,671.289 782.729,688.128C766.78,713.36 750.151,738.153 733.937,763.263C730.835,768.067 727.777,772.712 724.657,777.259C727.474,775.498 730.457,773.731 733.569,771.967C768.489,752.178 819.826,732.749 835.207,728.83C837.087,728.351 840.904,727.732 844.062,726.552C845.033,726.19 845.933,725.779 846.625,725.268C846.797,725.141 847.021,724.896 847.117,724.789C847.092,724.716 847.044,724.586 847,724.5C846.173,722.844 846.845,720.828 848.5,720C850.156,719.173 852.172,719.845 853,721.5C853.98,723.483 854.017,725.233 853.526,726.765C853.056,728.227 852.052,729.553 850.559,730.636C846.97,733.241 839.776,734.438 836.793,735.17C821.602,738.895 770.862,757.614 736.279,776.801C728.234,781.264 721.068,785.742 715.463,790.063C713.051,793.259 710.554,796.433 707.931,799.609C707.103,800.612 706.014,802.849 705.089,804.535C704.327,805.923 703.585,807.011 703.138,807.415C702.148,808.311 701.153,808.272 700.49,808.09C699.85,807.915 698.453,807.287 698.442,805C698.424,800.884 701.087,796.132 706.076,791.207C708.006,789.302 710.289,787.346 712.87,785.356Z"/>
        <path d="M767.803,641.987C767.783,642.464 767.775,643.106 767.834,643.653C768.403,648.946 771.382,658.176 771.775,660.746C775.602,685.798 776.927,710.867 780.202,735.791C781.59,746.354 783.332,756.889 785.771,767.384C788.178,777.739 795.304,789.966 799.629,801.418C801.823,807.229 803.304,812.864 803.354,818C803.354,819.851 801.851,821.354 800,821.354C798.149,821.354 796.646,819.851 796.646,818C796.689,813.559 795.421,808.68 793.621,803.62C789.437,791.857 782.478,779.223 780.229,768.616C777.957,757.902 776.391,747.162 775.189,736.4C772.399,711.434 771.563,686.358 768.225,661.254C767.827,658.262 764.238,646.395 764.553,641.764C764.664,640.123 765.317,639.109 766.083,638.706C766.914,638.269 768.444,638.266 770.422,640.099C771.057,640.676 771.104,641.661 770.527,642.296C769.949,642.932 768.965,642.979 768.329,642.401C768.156,642.247 767.972,642.106 767.803,641.987Z"/>
        <path d="M939.938,669.558C939.92,669.95 939.873,671.11 939.868,672.227C939.839,679.38 940.353,696.351 941.037,701.774C942.968,717.072 946.289,735.679 952.757,752.214C957.043,763.169 962.719,773.201 970.371,780.629C971.68,781.937 971.68,784.063 970.371,785.371C969.063,786.68 966.937,786.68 965.629,785.371C957.611,777.112 951.724,766.156 947.452,754.198C941.337,737.079 938.473,717.942 936.963,702.226C936.432,696.696 936.412,679.434 936.658,672.166C936.711,670.626 936.776,669.514 936.848,669.017C937.24,666.31 939.446,667.378 939.882,668.256C940.1,668.677 940.106,669.151 939.938,669.558ZM939.348,670.273L939.213,670.351C938.968,670.478 938.705,670.533 938.448,670.523C938.749,670.552 939.061,670.494 939.348,670.273ZM937.412,670.08L937.42,670.088L937.41,670.078L937.412,670.08ZM937.309,669.969L937.319,669.98L937.307,669.967L937.309,669.969Z"/>
        <path d="M1061.04,755.154L1061.07,755.063C1061.81,752.75 1062.46,749.586 1063.04,745.788C1065.11,732.224 1066.2,710.909 1066.09,690.879C1066.01,674.445 1065.12,658.878 1063.29,649.2C1062.76,646.446 1062.18,644.196 1061.49,642.591C1061.17,641.841 1060.91,641.252 1060.53,640.964C1059.74,640.363 1058.51,640.204 1056.97,640.211C1054.95,640.221 1052.5,640.607 1049.7,641.292C1037.56,644.269 1019.38,652.751 1002.12,662.553C984.38,672.63 967.599,684.101 959.334,692.527C957.179,694.724 955.616,696.681 954.843,698.345C954.282,699.549 954.107,700.517 954.989,701.107C955.706,701.58 955.904,702.546 955.431,703.263C954.958,703.98 953.993,704.178 953.276,703.705C950.803,702.098 950.501,699.327 952.64,695.695C957.728,687.054 978.136,671.962 1000.12,659.079C1017.65,648.806 1036.15,639.922 1048.55,636.706C1052.49,635.683 1055.86,635.235 1058.45,635.41C1060.57,635.553 1062.26,636.136 1063.47,637.036C1064.45,637.758 1065.44,639.131 1066.27,641.17C1067.59,644.418 1068.69,649.672 1069.54,656.236C1072.06,675.787 1072.44,707.318 1070.9,730.697C1070.05,743.7 1068.54,754.239 1066.57,759.073C1065.16,762.557 1062.92,763.818 1061.21,763.854C1060.3,763.873 1059.33,763.614 1058.37,762.935C1057.05,762.011 1055.36,759.586 1053.82,755.061C1053.23,753.305 1054.18,751.404 1055.94,750.818C1057.69,750.233 1059.6,751.184 1060.18,752.939C1060.43,753.717 1060.74,754.479 1061.04,755.154Z"/>
        <path d="M1015.89,761.836C1015.83,760.995 1015.77,759.835 1015.78,759C1015.84,755.992 1013.66,748.147 1010.97,738.548C1006.26,721.804 999.872,700.058 999.24,688.268C999.078,685.246 999.293,682.819 999.919,681.183C1000.53,679.585 1001.5,678.583 1002.77,678.168C1004.71,677.534 1007.92,678.458 1012.34,682.381C1012.99,682.939 1013.07,683.922 1012.51,684.575C1011.95,685.227 1010.97,685.303 1010.32,684.744C1008.33,683.102 1006.71,682.071 1005.41,681.595C1004.79,681.369 1004.3,681.275 1003.9,681.421C1003.37,681.615 1003.24,682.258 1003.08,683.056C1002.82,684.333 1002.83,686.01 1003.01,687.998C1004.21,701.297 1013.42,727.245 1018.58,743.935C1020.75,750.979 1022.17,756.496 1022.22,759C1022.24,760.287 1022.52,761.562 1022.56,762.601C1022.6,763.902 1022.32,765.003 1021.82,765.872C1021.07,767.194 1019.73,768.304 1017,768.354C1015.15,768.354 1013.65,766.851 1013.65,765C1013.65,763.539 1014.58,762.295 1015.89,761.836Z"/>
        <path d="M1039.06,706.617C1037.9,706.58 1035.16,706.551 1032.78,706.971C1022.2,708.838 1005.19,714.985 994.058,722.343C989.802,725.157 986.399,728.102 984.688,731.093C983.347,733.437 983.11,735.776 984.652,737.987C985.159,738.679 985.009,739.654 984.316,740.161C983.623,740.669 982.649,740.518 982.142,739.826C979.654,736.593 979.711,733.046 981.572,729.406C984.12,724.424 990.488,719.204 998.255,714.59C1012.11,706.361 1030.37,700.114 1038.26,699.952C1043.2,699.851 1045.29,702.418 1045.35,705C1045.35,706.851 1043.85,708.354 1042,708.354C1040.74,708.354 1039.63,707.652 1039.06,706.617ZM1038.65,705.068L1038.65,705C1038.65,705.022 1038.65,705.045 1038.65,705.068Z"/>
        <path d="M991.31,784.59C991.6,784.848 991.794,785.214 991.826,785.632C991.892,786.488 991.25,787.236 990.393,787.301C988.139,787.532 986.949,787.246 986.483,786.972C985.829,786.588 985.608,786.038 985.547,785.495C985.497,785.042 985.631,784.468 986.117,783.879C987.283,782.465 993.53,779.697 994.069,779.371C1002.17,774.458 1010.52,769.826 1019,765.424C1027.47,761.028 1036.07,756.877 1044.68,752.918C1046.38,752.188 1048.35,752.978 1049.08,754.679C1049.81,756.38 1049.02,758.353 1047.32,759.082C1038.6,762.554 1029.89,766.217 1021.29,770.128C1012.68,774.042 1004.19,778.19 995.931,782.629C995.618,782.798 993.364,783.653 991.31,784.59Z"/>
        <path d="M951.108,891.959C951.604,892.605 952.159,893.291 952.767,894.005C958.48,900.726 968.908,910.057 980,909.646C981.851,909.646 983.354,911.149 983.354,913C983.354,914.851 981.851,916.354 980,916.354C971.239,916.029 963.032,910.91 956.802,904.888C951.229,899.502 947.223,893.578 945.747,890.501C945.096,889.145 944.896,888.138 944.958,887.683C945.056,886.959 945.387,886.501 945.813,886.241C946.227,885.989 946.853,885.729 947.692,886.107C948.271,886.367 949.534,887.405 951.356,889.709C951.913,890.362 951.835,891.345 951.182,891.902L951.108,891.959Z"/>
        <path d="M1009.94,873.639C1009.79,873.825 1009.63,874.023 1009.48,874.214C1004.77,880.492 994.071,899.839 992,904.5C991.172,906.155 989.156,906.827 987.5,906C985.845,905.172 985.173,903.156 986,901.5C988.567,896.903 1001.37,878.016 1006.81,872.006C1008.28,870.37 1009.54,869.622 1010.07,869.602C1010.97,869.569 1011.68,869.881 1011.95,870.882C1012.04,871.191 1012.11,871.706 1011.94,872.442C1011.78,873.286 1010.97,873.843 1010.12,873.686C1010.06,873.674 1010,873.658 1009.94,873.639Z"/>
        <path d="M952.808,943.999C953.434,944.103 953.957,944.589 954.078,945.25C954.234,946.094 953.674,946.906 952.83,947.061C951.458,947.35 950.492,947.369 949.896,947.263C949.112,947.125 948.657,946.73 948.373,946.344C947.904,945.706 947.755,944.597 948.744,943.258C950.242,941.229 955.639,937.311 962.79,933.002C971.872,927.528 983.798,921.359 993.777,917.512C999.843,915.173 1005.25,913.743 1009,913.646C1010.85,913.646 1012.35,915.149 1012.35,917C1012.35,918.851 1010.85,920.354 1009,920.354C1003.41,920.21 993.571,923.519 983.582,927.733C971.876,932.672 960.017,938.909 954.246,942.944C953.709,943.319 953.227,943.671 952.808,943.999Z"/>
        <path d="M992.974,923.147C989.859,923.499 987.715,925.518 986.335,928.737C985.079,931.666 984.523,935.707 984.429,940.325C984.127,955.199 988.839,976.389 988.646,983C988.646,984.851 990.149,986.354 992,986.354C993.851,986.354 995.354,984.851 995.354,983C995.159,976.334 989.19,955.277 988.619,940.288C988.465,936.239 988.681,932.666 989.631,930.037C990.367,928 991.502,926.557 993.413,926.228C994.263,926.107 994.854,925.318 994.733,924.468C994.612,923.618 993.824,923.026 992.974,923.147Z"/>
        <path d="M1004.75,948.486C1004.11,948.557 1003.18,948.68 1002.45,948.856C999.504,949.573 996.336,950.705 995.71,950.839C991.47,951.751 982.695,952.753 975.926,954.67C972.936,955.517 970.345,956.46 968.946,957.788C968.532,958.18 968.188,958.557 968.203,959.047C968.218,959.575 968.487,960.137 968.994,960.766C969.866,961.85 971.281,963.035 973.348,964.347C974.088,964.783 974.334,965.738 973.898,966.478C973.462,967.217 972.507,967.464 971.768,967.028C963.278,962.394 963.314,958.093 966.145,955.025C967.789,953.243 970.874,951.685 974.553,950.374C981.267,947.982 990.066,946.367 994.29,945.161C994.985,944.962 998.83,943.282 1001.99,942.415C1003.94,941.877 1005.73,941.735 1006.84,941.927C1007.74,942.082 1008.42,942.484 1008.94,942.915C1009.83,943.64 1010.31,944.661 1010.35,946C1010.35,947.851 1008.85,949.354 1007,949.354C1006.13,949.354 1005.35,949.025 1004.75,948.486ZM1003.67,946.373C1003.65,946.251 1003.65,946.126 1003.65,946C1003.64,946.13 1003.65,946.255 1003.67,946.373Z"/>
        <path d="M963.905,993.988C964.223,994.138 964.831,994.392 965.466,994.495C965.893,994.565 966.371,994.625 966.905,994.664C967.763,994.696 968.434,995.419 968.402,996.277C968.369,997.135 967.647,997.806 966.789,997.773C963.27,997.769 961.46,996.771 960.767,995.753C960.197,994.917 960.116,993.906 960.522,992.745C960.868,991.755 961.745,990.572 963.069,989.289C968.4,984.124 982.001,976.714 991.292,973.025C995.052,971.532 998.201,970.711 1000,970.646C1001.85,970.646 1003.35,972.149 1003.35,974C1003.35,975.851 1001.85,977.354 1000,977.354C995.863,977.204 983.003,982.151 973.669,987.086C969.485,989.298 965.994,991.472 964.401,993.297C964.216,993.508 964.018,993.809 963.905,993.988Z"/>
        <path d="M945.708,1031.37C946.913,1031.27 949.331,1031.08 949.718,1031.05C950.572,1030.96 951.338,1031.58 951.428,1032.43C951.517,1033.29 950.896,1034.05 950.042,1034.14C949.363,1034.22 945.597,1035.11 943.878,1034.5C943.041,1034.2 942.495,1033.65 942.217,1032.93C941.971,1032.3 941.934,1031.42 942.498,1030.25C946.399,1022.13 955.591,1015.14 967.058,1009.07C989.418,997.233 1020.54,988.778 1035.5,981C1037.16,980.173 1039.17,980.845 1040,982.5C1040.83,984.156 1040.15,986.172 1038.5,987C1023.27,994.318 991.817,1001.81 969.039,1012.96C958.404,1018.17 949.669,1024.12 945.708,1031.37Z"/>
        <path d="M1004.65,1000.99C999.633,1006.12 995.477,1012 991.82,1018.35C978.275,1041.87 971.926,1071.99 953.454,1092.82C952.249,1094.22 952.412,1096.34 953.817,1097.55C955.223,1098.75 957.342,1098.59 958.546,1097.18C976.615,1075.37 982.207,1044.59 995.172,1020.2C998.473,1013.99 1002.26,1008.21 1006.91,1003.13C1007.5,1002.51 1007.48,1001.52 1006.85,1000.93C1006.23,1000.34 1005.24,1000.37 1004.65,1000.99Z"/>
        <path d="M1025.17,1029.98C1025.75,1036.33 1030.39,1041.52 1036.5,1045.77C1044.67,1051.45 1055.54,1055.34 1061.75,1058.11C1063.47,1058.8 1065.43,1057.96 1066.11,1056.25C1066.8,1054.53 1065.96,1052.57 1064.25,1051.89C1058.04,1049.68 1047.26,1046.79 1038.95,1041.93C1033.55,1038.77 1029.15,1034.86 1028.25,1029.58C1028.14,1028.73 1027.36,1028.13 1026.51,1028.24C1025.66,1028.35 1025.06,1029.13 1025.17,1029.98Z"/>
        <path d="M1144.62,914.821C1144.69,912.892 1145.56,909.8 1147.11,906.091C1150.67,897.566 1157.69,885.361 1164.37,876.717C1168.39,871.509 1172.34,867.595 1175.35,866.322C1177.35,865.479 1179.05,865.611 1180.37,866.686C1181.05,867.219 1181.16,868.198 1180.63,868.872C1180.1,869.545 1179.12,869.659 1178.44,869.126C1177.75,868.59 1176.87,869.056 1175.78,869.738C1172.37,871.888 1168.08,877.339 1163.92,883.753C1157.03,894.359 1150.48,907.644 1149.51,913.6L1149.6,913.583C1153.27,912.918 1156.88,911.653 1160.47,910.056C1174.38,903.863 1187.94,892.879 1202.76,889.147C1202.81,888.928 1202.89,888.711 1203,888.5C1203.83,886.845 1205.84,886.173 1207.5,887C1210.04,888.316 1210.59,889.832 1210.69,890.523C1210.86,891.667 1210.61,892.726 1209.71,893.628C1209.36,893.983 1208.83,894.388 1208.06,894.662C1207.49,894.867 1206.61,895.048 1205.64,895.227C1190.56,898.025 1176.7,909.03 1162.53,914.869C1158.52,916.524 1154.49,917.795 1150.4,918.417C1149.56,918.545 1148.53,918.832 1147.69,918.764C1146.76,918.689 1145.94,918.366 1145.3,917.702C1144.9,917.292 1144.65,916.827 1144.55,916.298C1144.48,915.905 1144.59,915.016 1144.62,914.821Z"/>
        <path d="M1190.26,1048.73C1190.48,1048.29 1191,1047.24 1191.24,1046.38C1192.21,1042.9 1192.71,1037.83 1192.97,1032.67C1193.44,1023.38 1193.11,1013.8 1193.06,1012.12C1192.58,996.447 1186.33,952.153 1183.97,918.33C1182.62,898.929 1182.65,882.902 1185.54,877.27C1185.99,876.392 1186.61,876.019 1187.24,875.898C1187.8,875.792 1188.45,875.881 1189.13,876.287C1190.47,877.096 1192.32,879.903 1193.63,881.031C1194.28,881.585 1194.37,882.568 1193.81,883.223C1193.26,883.879 1192.28,883.961 1191.62,883.407C1190.74,882.675 1188.96,880.73 1188.05,879.713C1185.87,885.859 1186.45,900.508 1188.02,918.009C1191.04,951.88 1198.16,996.177 1198.94,1011.88C1199.07,1014.46 1200.15,1034.84 1198.1,1045.84C1197.4,1049.56 1196.18,1052.34 1194.82,1053.71C1193.7,1054.83 1192.4,1055.34 1191,1055.35C1189.15,1055.35 1187.65,1053.85 1187.65,1052C1187.65,1050.4 1188.76,1049.07 1190.26,1048.73Z"/>
        <path d="M1176.5,952.292C1174.45,950.998 1172.17,951.36 1169.77,953.279C1167.36,955.199 1164.74,958.922 1162.04,963.781C1155.39,975.73 1148.06,994.754 1141.49,1009.22C1137.83,1017.27 1134.51,1023.87 1131.63,1026.63C1130.32,1027.94 1130.32,1030.06 1131.63,1031.37C1132.94,1032.68 1135.06,1032.68 1136.37,1031.37C1139.47,1028.14 1143.12,1020.72 1146.86,1011.53C1152.8,996.9 1159.3,977.709 1165.42,965.576C1167.67,961.124 1169.81,957.644 1171.9,955.836C1172.96,954.911 1173.93,954.402 1174.9,954.958C1175.63,955.401 1176.59,955.163 1177.03,954.428C1177.48,953.692 1177.24,952.735 1176.5,952.292Z"/>
        <path d="M1170.47,957.297C1169.98,957.619 1169.33,957.652 1168.8,957.329C1168.07,956.882 1167.84,955.924 1168.28,955.19C1168.44,954.911 1168.91,954.449 1169.87,954.212C1170.88,953.96 1173.06,953.764 1176.04,953.614C1190.83,952.874 1226.64,953.215 1234.45,951.692C1236.27,951.388 1238,952.623 1238.31,954.449C1238.61,956.274 1237.38,958.004 1235.55,958.308C1233.12,958.646 1228.15,958.712 1221.94,958.585C1207.06,958.281 1184.82,957.034 1174.83,957.084C1172.7,957.095 1170.46,957.3 1170.46,957.3L1170.47,957.297Z"/>
        <path d="M1236.78,842.916C1233.66,836.139 1234.34,832.071 1237.62,830.107C1239.26,829.127 1241.43,828.756 1243.83,828.72C1248.78,828.644 1254.65,830.316 1259.5,833C1261.16,833.827 1263.17,833.155 1264,831.5C1264.83,829.844 1264.15,827.828 1262.5,827C1253.13,822.799 1241.05,822.039 1235.12,826.305C1230.76,829.447 1228.83,835.201 1234.01,844.334C1234.4,845.099 1235.34,845.401 1236.1,845.01C1236.87,844.618 1237.17,843.68 1236.78,842.916Z"/>
        <path d="M1227.83,882.18C1219.31,890.36 1215.7,916.495 1219.76,937.241C1221.45,945.859 1224.49,953.522 1228.86,958.743C1232.81,963.467 1237.86,966.234 1244,966.354C1245.85,966.354 1247.35,964.851 1247.35,963C1247.35,961.149 1245.85,959.646 1244,959.646C1238.73,959.749 1234.62,956.762 1231.46,952.143C1228.53,947.868 1226.37,942.277 1224.91,936.128C1222.02,923.922 1221.84,909.591 1224.04,898.638C1225.29,892.395 1227.26,887.259 1230.03,884.382C1230.64,883.776 1230.64,882.79 1230.03,882.182C1229.43,881.574 1228.44,881.573 1227.83,882.18Z"/>
        <path d="M1299.11,931.603C1299.21,931.479 1299.31,931.351 1299.39,931.228C1300.04,930.241 1300.68,928.951 1301.3,927.424C1304.08,920.569 1306.4,909.38 1307.04,898.491C1307.54,890.106 1307.07,881.895 1304.93,876.046C1303.83,873.035 1302.34,870.67 1300.12,869.536C1296.37,867.613 1290.31,866.959 1283.28,867.242C1270.52,867.754 1254.67,871.459 1242.77,877.51C1229.01,884.503 1220.44,894.631 1230.02,906.742C1230.56,907.41 1230.45,908.39 1229.79,908.929C1229.12,909.469 1228.14,909.364 1227.6,908.696C1216.17,894.811 1225.11,882.501 1240.97,874.052C1253.27,867.498 1269.74,863.315 1283.04,862.525C1291.11,862.046 1298.05,862.872 1302.39,864.995C1306.85,867.169 1309.86,872.443 1311.42,879.459C1313.74,889.893 1313,904.303 1310.82,916.071C1309.24,924.617 1306.83,931.78 1304.39,935.278C1301.8,939.002 1298.74,939.518 1296.19,937.993C1295.15,937.373 1294.04,936.205 1293.08,934.25C1292.24,932.539 1291.42,930.052 1290.71,926.658C1290.35,924.843 1291.53,923.074 1293.34,922.711C1295.16,922.348 1296.93,923.527 1297.29,925.342C1297.78,927.907 1298.31,929.84 1298.91,931.204C1298.97,931.334 1299.04,931.47 1299.11,931.603Z"/>
        <path d="M1248.08,815.484C1245.28,820.4 1245.17,829.079 1246.33,839.717C1249.87,872.278 1266.08,922.4 1266.35,944C1266.35,945.851 1264.85,947.354 1263,947.354C1261.15,947.354 1259.65,945.851 1259.65,944C1259.91,922.574 1245,872.481 1242.3,840.104C1241.29,827.976 1242.05,818.237 1245.59,813.06C1246.22,812.145 1247.68,811.658 1249.61,812.365C1252.49,813.42 1257.11,816.904 1257.33,817.027C1258.09,817.424 1258.39,818.364 1257.99,819.126C1257.6,819.887 1256.65,820.183 1255.89,819.786C1255.68,819.677 1249.41,816.221 1248.08,815.484Z"/>
        <path d="M1235,918.823C1234.72,918.359 1234.86,917.856 1235.13,917.322C1235.47,916.671 1236.05,916.022 1236.8,915.343C1240.92,911.567 1249.91,907.688 1259.04,905.36C1265.49,903.712 1272.02,902.873 1276.92,903.553C1280.21,904.009 1282.73,905.077 1282.65,908C1282.65,909.851 1284.15,911.354 1286,911.354C1287.85,911.354 1289.35,909.851 1289.35,908C1289.23,903.643 1287.14,900.724 1283.56,899.069C1279.11,897.018 1271.84,897.129 1264.05,898.907C1256.37,900.661 1248.17,903.843 1242.02,907.326C1237.89,909.667 1234.67,912.146 1233.05,914.401C1231.44,916.638 1231.19,918.739 1232.37,920.49C1232.83,921.215 1233.79,921.43 1234.52,920.97C1235.24,920.51 1235.46,919.548 1235,918.823Z"/>
        <path d="M1245.78,960.878C1245.85,961.017 1245.9,961.171 1245.93,961.334C1246.08,962.181 1245.51,962.984 1244.66,963.128C1243.39,963.388 1242.65,963.016 1242.31,962.738C1241.72,962.26 1241.43,961.51 1241.86,960.451C1242.41,959.088 1246.97,955.291 1253.26,951.148C1259.89,946.785 1268.4,941.905 1275.57,938.832C1280.08,936.898 1284.14,935.747 1287,935.646C1288.85,935.646 1290.35,937.149 1290.35,939C1290.35,940.851 1288.85,942.354 1287,942.354C1283.86,942.243 1278.93,943.778 1273.55,945.95C1264.45,949.62 1254.21,955.13 1248.57,958.878C1247.43,959.634 1246.48,960.307 1245.78,960.878Z"/>
        <path d="M1240.14,1025.81C1242.15,1017.2 1243.74,1008.13 1246.6,999.694C1248.27,994.785 1250.37,990.089 1253.2,985.801C1253.7,985.048 1254.37,984.832 1255.02,984.83C1255.45,984.829 1256.06,984.935 1256.62,985.534C1256.73,985.656 1257,985.996 1257.22,986.626C1257.42,987.207 1257.77,988.474 1258.22,990.217C1260.42,998.691 1265.25,1019.21 1268.03,1023.54C1272.53,1030.54 1278.15,1035.07 1284.51,1038.07C1294.47,1042.76 1306.17,1043.72 1318.16,1044.38C1337.68,1045.47 1369.6,1037.27 1390.34,1021.18C1404.12,1010.49 1412.94,996.254 1408.85,978.721C1408.58,977.578 1407.77,976.718 1406.79,975.951C1405.57,975.003 1404.07,974.242 1402.52,973.558C1398.3,971.706 1393.72,970.362 1391.43,968.751C1389.49,967.388 1388.65,965.713 1388.65,964C1388.65,962.149 1390.15,960.646 1392,960.646C1393.59,960.646 1394.92,961.752 1395.27,963.236C1395.64,963.473 1396.49,963.996 1397.17,964.298C1400.51,965.787 1405.32,967.257 1408.96,969.519C1412.1,971.479 1414.43,974.026 1415.15,977.279C1419.66,997.402 1409.87,1013.83 1393.98,1025.92C1372.01,1042.64 1338.36,1050.95 1317.84,1049.62C1305.19,1048.79 1292.87,1047.55 1282.39,1042.5C1275.31,1039.08 1269.04,1033.95 1264.07,1026.06C1261.33,1021.7 1256.61,1001.84 1254.28,992.423C1252.81,995.18 1251.6,998.078 1250.56,1001.06C1246.75,1011.94 1245.1,1023.92 1241.85,1034.56L1239.74,1039.79C1239.37,1040.6 1238.49,1041.05 1237.62,1040.87C1236.75,1040.69 1236.12,1039.93 1236.1,1039.04C1236.1,1039.04 1235.56,1006.85 1243.59,986.667C1247.11,977.817 1252.33,971.285 1259.65,970.121C1260.5,969.982 1261.3,970.558 1261.44,971.405C1261.58,972.252 1261.01,973.053 1260.16,973.192C1252.01,974.565 1247.37,983.904 1244.44,994.843C1241.67,1005.16 1240.57,1017 1240.14,1025.81Z"/>
        <path d="M1385.71,953.808C1379.36,944.812 1380.84,939.227 1388.33,952.098C1388.46,952.22 1388.66,952.42 1388.9,952.682C1389.89,953.762 1392.16,956.508 1392.34,956.665C1396.07,960.051 1400.06,962.401 1404.33,963.886C1408.6,965.373 1413.15,965.883 1418,965.646C1419.85,965.646 1421.35,967.149 1421.35,969C1421.35,970.851 1419.85,972.354 1418,972.354C1412.36,972.078 1407.15,970.955 1402.37,968.746C1397.74,966.608 1393.49,963.551 1389.66,959.335C1389.51,959.169 1387.76,956.613 1386.72,955.188C1386.53,955.069 1386.36,954.907 1386.24,954.705C1385.9,954.226 1385.76,953.926 1385.71,953.808Z"/>
        <path d="M1445.91,932.737C1447.86,932.038 1449.16,933.339 1450.44,935.072C1452.3,937.587 1453.86,941.203 1455.7,944.367C1457.29,947.088 1459.16,949.397 1461.28,950.876C1462.86,951.828 1464.92,951.313 1465.88,949.725C1466.83,948.138 1466.31,946.077 1464.73,945.124C1462.42,943.951 1460.5,941.365 1458.61,938.759C1456.17,935.377 1453.84,931.979 1451.3,930.378C1449.23,929.079 1447.07,928.623 1444.66,929.888C1443.88,930.233 1443.52,931.152 1443.86,931.938C1444.21,932.724 1445.13,933.082 1445.91,932.737Z"/>
    </g>
</svg>
