<?xml version="1.0" encoding="UTF-8" standalone="no"?>
<!DOCTYPE svg PUBLIC "-//W3C//DTD SVG 1.1//EN" "http://www.w3.org/Graphics/SVG/1.1/DTD/svg11.dtd">
<svg width="100%" height="100%" viewBox="0 0 967 808" version="1.1" xmlns="http://www.w3.org/2000/svg" xmlns:xlink="http://www.w3.org/1999/xlink" xml:space="preserve" xmlns:serif="http://www.serif.com/" style="fill-rule:evenodd;clip-rule:evenodd;stroke-linejoin:round;stroke-miterlimit:2;">
    <g transform="matrix(1,0,0,1,-386.215,-270.472)">
        <g transform="matrix(0.933134,0,0,0.9689,87.8627,27.9453)">
            <path d="M763.346,371.658C763.087,371.766 762.795,371.804 762.497,371.753C761.681,371.615 761.135,370.865 761.279,370.08C761.587,368.268 762.144,367.351 762.501,367.059C763.092,366.576 763.708,366.548 764.32,366.792C764.623,366.912 764.987,367.167 765.3,367.652C765.671,368.227 766.102,369.525 766.502,371.397C769.218,384.103 772.439,426.461 772.354,428.398C771.842,440.114 769.105,452.492 765.287,464.828C759.702,482.878 751.787,500.83 745.221,516.428C743.526,520.456 740.343,525.51 738.513,530.283C737.814,532.107 737.323,533.873 737.342,535.485C737.342,537.396 735.732,538.947 733.748,538.947C731.764,538.947 730.154,537.396 730.154,535.485C730.182,533.119 730.856,530.519 731.945,527.865C733.917,523.062 737.255,517.998 739.072,513.948C745.94,498.646 754.208,481.046 760.163,463.295C764.144,451.429 767.097,439.503 767.862,428.166C767.99,426.263 765.784,384.532 763.409,371.975L763.346,371.658Z"/>
        </g>
        <g transform="matrix(0.933134,0,0,0.9689,87.8627,27.9453)">
            <path d="M645.819,581.846C648.367,577.654 650.965,573.456 653.164,569.071C654.611,566.185 655.886,563.218 656.849,560.115C660.079,549.716 663.308,539.195 665.978,528.565C667.751,521.505 669.279,514.396 670.393,507.244C671.313,501.34 671.906,495.66 672.17,489.965C672.434,484.271 672.37,478.561 671.979,472.599C671.82,470.189 670.039,462.598 669.802,460.064C669.671,458.655 670.414,457.929 670.674,457.804C670.998,457.647 672.22,457.343 673.042,458.809C673.343,459.339 673.262,459.972 672.889,460.414C673.335,463.41 674.96,470.14 675.134,472.39C675.603,478.464 675.733,484.284 675.53,490.092C675.327,495.903 674.789,501.703 673.92,507.735C672.872,515.001 671.406,522.228 669.688,529.409C667.124,540.132 663.997,550.753 660.867,561.249C659.876,564.572 658.556,567.754 657.047,570.851C654.823,575.415 652.183,579.789 649.595,584.156C649.454,584.394 649.158,584.746 648.732,585.128L648.371,585.464C649.046,585.622 649.839,585.69 650.72,585.716C653.853,585.81 657.932,585.148 662.418,584.095C677.225,580.618 696.218,572.787 701.362,570.941C724.464,562.648 746.695,553.268 768.472,543.078C801.189,527.769 832.876,510.629 864.934,492.593C866.652,491.638 868.852,492.207 869.843,493.861C870.834,495.516 870.244,497.635 868.526,498.589C836.119,516.365 804.094,533.242 771.056,548.272C749.005,558.304 726.506,567.514 703.143,575.62C697.908,577.436 678.558,585.15 663.51,588.515C658.539,589.627 654.015,590.265 650.553,590.125C647.778,590.013 645.598,589.379 644.171,588.297C643.042,587.441 642.789,586.421 643.02,585.354C643.143,584.787 643.468,584.154 643.98,583.561C644.506,582.953 645.664,581.976 645.819,581.846Z"/>
        </g>
        <g transform="matrix(0.933134,0,0,0.9689,87.8627,27.9453)">
            <path d="M854.611,453.9C853.565,461.582 854.565,471.371 856.672,481.378C859.742,495.955 865.185,510.97 870.007,520.525C871.645,523.77 875.674,533.764 881.013,539.824C884.118,543.349 887.778,545.501 891.506,545.575C893.49,545.575 895.1,544.024 895.1,542.114C895.1,540.203 893.49,538.652 891.506,538.652C890.29,538.676 889.143,538.076 888.024,537.217C886.713,536.212 885.463,534.882 884.295,533.393C879.995,527.913 876.703,520.539 875.252,517.941C870.183,508.864 864.307,494.513 860.729,480.502C858.297,470.979 856.905,461.627 857.594,454.216C857.684,453.424 857.09,452.709 856.266,452.622C855.443,452.534 854.701,453.107 854.611,453.9Z"/>
        </g>
        <g transform="matrix(1.30862,0,0,1.30902,-232.134,-161.199)">
            <path d="M680.371,696.779C680.35,697.054 680.335,697.343 680.333,697.621C680.304,700.626 680.832,705.352 682.002,709.371C682.523,711.163 683.195,712.787 684.015,714.007C684.587,714.86 685.218,715.482 686.103,715.211C687.475,714.868 688.868,715.703 689.211,717.075C689.554,718.447 688.718,719.839 687.346,720.182C685.236,720.594 683.444,720.115 681.986,718.761C680.189,717.093 678.84,713.947 678.175,710.271C677.216,704.969 677.351,698.688 677.943,695.815C678.173,694.7 678.525,693.98 678.827,693.716C679.398,693.216 679.987,693.108 680.598,693.582C680.872,693.795 681.297,694.328 681.583,695.398C681.764,695.959 681.456,696.563 680.894,696.745C680.719,696.801 680.54,696.81 680.371,696.779Z"/>
        </g>
        <g transform="matrix(1.30862,0,0,1.30902,-232.134,-161.199)">
            <path d="M703.593,677.662C705.93,681.127 705.845,686.333 704.825,692.153C703.424,700.154 700.137,709.247 697.924,716.847C696.627,721.301 695.722,725.273 695.636,728.289C695.636,729.703 696.785,730.851 698.199,730.851C699.613,730.851 700.762,729.703 700.762,728.289C700.537,720.352 706.37,705.035 707.829,692.591C708.604,685.988 708.18,680.161 705.333,676.417C704.989,675.937 704.32,675.826 703.84,676.17C703.36,676.514 703.249,677.183 703.593,677.662Z"/>
        </g>
        <g transform="matrix(1.30862,0,0,1.30902,-232.134,-161.199)">
            <path d="M643.452,748.015C642.476,753.127 645.444,755.508 650.087,756.279C658.158,757.621 671.805,753.59 674.453,752.607C682.542,749.602 690.445,746.017 698.254,742.183C709.87,736.481 721.268,730.226 732.747,724.518C739.065,721.377 745.85,718.791 752.254,715.639C755.109,714.234 757.887,712.716 760.524,711.002C761.701,710.217 762.019,708.625 761.234,707.449C760.45,706.272 758.857,705.954 757.68,706.739C755.247,708.401 752.677,709.88 750.033,711.257C743.702,714.555 736.978,717.298 730.733,720.584C719.39,726.553 708.141,733.068 696.662,739.035C689.039,742.997 681.318,746.718 673.399,749.869C670.917,750.856 658.11,755.022 650.451,753.93C647.202,753.466 644.96,751.971 645.559,748.392C645.663,747.811 645.275,747.255 644.694,747.151C644.113,747.047 643.556,747.434 643.452,748.015Z"/>
        </g>
        <g transform="matrix(1.30862,0,0,1.30902,-232.134,-161.199)">
            <path d="M667.575,794.347C670.138,793.539 674.491,792.065 677.727,792.436C680.025,792.699 681.842,793.778 682.753,795.988C684.182,799.453 684.825,803.844 685.016,808.772C685.606,823.956 681.694,844.563 686.067,857.229C686.514,858.57 685.787,860.022 684.445,860.469C683.104,860.916 681.651,860.19 681.204,858.849C679.994,855.086 679.435,850.698 679.292,845.968C679.008,836.591 680.324,825.821 680.799,816.162C681.16,808.835 681.072,802.176 679.221,797.4C678.744,796.17 677.451,796.019 676.073,796.055C673.111,796.133 669.61,797.427 667.785,797.928C667.295,798.062 663.564,799.272 662.092,799.616C661.112,799.845 660.446,799.616 660.298,799.531C659.687,799.181 659.442,798.676 659.432,798.102C659.427,797.806 659.454,797.316 659.945,796.836C667.013,789.917 677.944,783.228 685.364,774.724C690.196,769.186 693.515,762.867 693.056,755.133C693.015,754.544 693.46,754.032 694.049,753.991C694.638,753.95 695.15,754.394 695.191,754.983C695.868,763.359 692.469,770.309 687.358,776.426C681.743,783.147 674.008,788.834 667.575,794.347Z"/>
        </g>
        <g transform="matrix(1.30862,0,0,1.30902,-232.134,-161.199)">
            <path d="M696.11,780.075C698.917,779.612 704.177,777.704 704.88,777.461C709.889,775.733 720.612,770.354 727.956,771C732.041,771.359 735.206,773.378 736.346,778.263C738.376,786.967 739.37,796.239 739.698,805.648C740.183,819.539 739.206,833.726 737.968,846.802C737.794,848.646 737.726,856.545 736.729,862.618C736.199,865.851 735.321,868.599 734.217,870.065C733.352,871.213 732.292,871.797 731.182,871.948C729.75,872.143 727.779,871.533 725.717,868.844C724.869,867.712 725.099,866.105 726.231,865.257C727.362,864.409 728.97,864.638 729.818,865.77C730.008,866.028 730.247,866.291 730.455,866.503C730.785,865.806 731.304,864.617 731.555,863.575C732.998,857.584 733.225,848.316 733.455,846.327C734.948,833.444 736.211,819.46 736.02,805.738C735.892,796.546 735.116,787.474 733.313,778.937C732.359,774.423 728.774,773.493 724.602,773.89C717.921,774.525 709.772,778.409 705.64,779.739C704.841,779.996 698.473,782.122 695.738,782.335C694.494,782.433 693.733,781.977 693.509,781.56C693.291,781.154 693.195,780.271 694.304,779.233C694.731,778.825 695.409,778.841 695.817,779.267C696.032,779.492 696.13,779.787 696.11,780.075Z"/>
        </g>
        <g transform="matrix(1.30862,0,0,1.30902,-232.134,-161.199)">
            <path d="M686.804,820.948C686.994,821.168 687.092,821.465 687.053,821.775C686.979,822.361 686.443,822.776 685.857,822.702C684.984,822.616 684.587,822.177 684.396,821.783C684.165,821.306 684.236,820.526 684.893,819.683C686.018,818.238 689.21,816.009 690.781,815.088C695.453,812.349 700.214,810.018 705.106,808.004C710.015,805.983 715.052,804.297 720.263,802.854C722.43,802.254 726.222,801.214 728.755,801.223C730.212,801.228 731.368,801.638 732.118,802.203C733.508,803.251 734.512,805.546 731.736,809.465C730.888,810.596 729.28,810.826 728.148,809.978C727.017,809.13 726.787,807.523 727.635,806.391C727.737,806.263 727.837,806.127 727.929,805.991C727.854,805.99 727.781,805.991 727.711,805.995C725.591,806.096 722.935,806.712 721.307,807.068C716.18,808.191 711.209,809.558 706.344,811.258C701.481,812.956 696.731,814.97 692.044,817.383C690.936,817.954 688.941,819.148 687.576,820.236C687.306,820.452 687.021,820.726 686.804,820.948Z"/>
        </g>
        <g transform="matrix(1.30862,0,0,1.30902,-232.134,-161.199)">
            <path d="M701.386,826.121C702.662,825.573 705.553,824.329 705.61,824.299C708.387,822.829 711.186,820.271 714.196,818.71C715.839,817.859 717.545,817.355 719.301,817.234C720.716,817.234 721.864,818.382 721.864,819.796C721.864,821.21 720.716,822.358 719.301,822.358C718.198,822.282 717.096,822.474 716,822.862C712.856,823.978 709.787,826.102 706.883,827.161C706.79,827.195 702.425,828.843 700.772,828.715C700.063,828.66 699.584,828.409 699.351,828.054C699.09,827.657 698.826,826.957 699.499,826.007C699.807,825.503 700.466,825.344 700.97,825.651C701.16,825.767 701.301,825.933 701.386,826.121Z"/>
        </g>
        <g transform="matrix(1.30862,0,0,1.30902,-232.134,-161.199)">
            <path d="M742.279,842.701C742.263,842.585 742.254,842.466 742.254,842.345C742.254,840.931 743.403,839.783 744.817,839.783C748.347,839.863 748.887,842.04 748.793,842.995C748.73,843.622 748.331,844.731 747.027,845.631C744.64,847.279 737.49,849.952 736.507,850.347C731.253,852.459 725.841,854.267 720.362,855.862C714.916,857.448 709.414,858.829 703.947,860.104C701.734,860.62 699.662,861.013 697.575,861.234C695.466,861.457 693.346,861.514 691.055,861.347C689.415,861.228 687.512,860.244 687.016,859.257C686.541,858.314 686.59,856.941 688.972,856.153C689.528,855.955 690.141,856.246 690.339,856.802C690.537,857.358 690.246,857.97 689.69,858.168C689.542,858.225 689.379,858.31 689.249,858.386C689.31,858.429 689.376,858.47 689.435,858.501C689.93,858.764 690.592,858.929 691.176,858.945C693.312,859.003 695.281,858.862 697.231,858.566C699.194,858.268 701.135,857.804 703.206,857.222C708.551,855.718 713.925,854.108 719.235,852.297C724.507,850.5 729.704,848.501 734.732,846.21C735.421,845.896 739.541,844.189 742.279,842.701Z"/>
        </g>
        <g transform="matrix(1.30862,0,0,1.30902,-232.134,-161.199)">
            <path d="M606.584,777.457C605.897,776.6 606.951,776.223 610.856,777.468L610.964,777.493C612.202,777.797 617.29,778.981 617.357,779.008C620.502,780.277 624.594,781.641 628.318,783.337C631.101,784.605 633.636,786.095 635.534,787.791C636.534,788.791 636.534,790.414 635.534,791.414C634.534,792.413 632.91,792.413 631.91,791.413C630.501,789.836 628.52,788.403 626.341,787.097C622.89,785.029 619.04,783.249 616.107,781.662C616.048,781.63 611.432,780.027 610.313,779.614L609.99,779.49C606.61,778.733 605.863,777.898 606.584,777.457Z"/>
        </g>
        <g transform="matrix(1.30862,0,0,1.30902,-232.134,-161.199)">
            <path d="M619.341,914.803C624.837,914.598 630.25,914.56 635.266,914.545C648.161,914.508 660.973,915.614 673.6,917.803C686.228,919.992 698.67,923.266 710.823,927.568C714.826,928.984 719.146,930.555 723.27,932.392C726.094,933.65 728.826,935.035 731.308,936.576C732.354,937.226 734.394,939.078 736.336,940.544C736.971,941.024 737.592,941.457 738.153,941.761C738.392,941.89 738.579,942.037 738.749,942.036C739.014,942.035 739.296,941.785 739.659,941.542C740.379,941.061 741.164,940.381 741.957,939.633C744.382,937.345 746.844,934.448 747.851,933.598C751.966,930.121 756.116,926.681 760.284,923.262C766.529,918.141 772.815,913.069 779.089,907.995C790.125,899.072 801.248,890.269 812.438,881.552C823.625,872.838 834.88,864.21 846.182,855.633C854.058,849.656 862.143,842.464 870.786,836.492C876.784,832.347 883.052,828.789 889.686,826.557C891.028,826.109 892.481,826.835 892.928,828.177C893.375,829.518 892.649,830.97 891.307,831.417C885.102,833.466 879.244,836.78 873.621,840.618C865.007,846.498 856.944,853.598 849.091,859.487C837.756,867.988 826.468,876.54 815.247,885.178C804.029,893.814 792.877,902.536 781.812,911.38C775.516,916.411 769.209,921.442 762.943,926.521C758.77,929.903 754.617,933.306 750.498,936.747C749.184,937.844 745.395,942.381 742.432,944.542C741.045,945.553 739.726,946.073 738.749,946.07C737.974,946.068 736.923,945.728 735.793,945.044C733.519,943.669 730.536,940.787 729.2,939.946C726.874,938.483 724.311,937.17 721.661,935.972C717.643,934.154 713.43,932.599 709.528,931.192C697.598,926.893 685.378,923.603 672.969,921.379C660.556,919.154 647.955,917.995 635.266,917.958C627.722,917.937 619.272,917.962 611,918.541C610.121,918.891 609.237,919.228 608.35,919.553C606.956,920.064 605.546,920.502 604.126,920.892C598.596,922.413 592.911,923.203 587.481,925.03C586.75,925.276 583.484,926.796 581.433,927.172C580.088,927.418 579.063,927.096 578.573,926.609C577.797,925.837 577.635,924.442 579.311,923.199C581.814,921.343 590.19,918.461 591.25,918.193C596.676,916.82 602.678,915.964 608.825,915.432C609.71,915.356 610.597,915.286 611.486,915.224C611.911,915.051 612.334,914.874 612.756,914.695C614.537,913.939 616.297,913.133 618.025,912.274C620.427,911.082 624.963,909.332 628.641,907.09C630.958,905.679 632.969,904.126 633.582,902.305C634.08,900.824 633.791,899.629 633.134,898.617C631.781,896.533 629.195,895.083 627.76,893.64C627.588,893.466 627.358,893.127 627.246,892.569C627.101,891.846 627.064,890.34 627.125,888.431C627.317,882.427 628.362,872.199 628.627,871.153C629.548,867.516 630.634,863.866 631.879,860.275C633.128,856.675 634.536,853.134 636.098,849.725C636.371,849.13 638.445,845.97 639.03,844.28C638.972,844.27 638.913,844.262 638.861,844.258C638.284,844.215 637.568,844.284 636.847,844.393C635.279,844.628 633.692,845.062 633.232,845.175C628.595,846.321 624.078,847.747 619.494,849.013C617.514,849.56 615.522,850.077 613.502,850.53L606.872,852.068C605.914,852.225 603.495,852.206 602.317,852.185C602.006,852.551 601.474,852.672 601.026,852.448C599.963,851.92 600.104,851.117 600.222,850.825C600.317,850.59 600.545,850.257 601.076,850.107C601.836,849.893 605.172,850.152 606.514,849.924L613.012,848.373C614.994,847.917 616.948,847.397 618.89,846.849C623.487,845.551 628.015,844.094 632.667,842.917C633.421,842.726 636.966,841.76 639.029,841.901C640.214,841.982 641.019,842.478 641.347,843.13C641.549,843.53 641.548,844.437 641.095,845.528C640.342,847.341 638.551,850.157 638.296,850.723C636.786,854.071 635.426,857.547 634.223,861.08C633.022,864.61 631.977,868.196 631.094,871.769C630.923,872.462 630.442,877.321 630.098,882.172C629.872,885.372 629.71,888.568 629.749,890.581C629.76,891.119 629.821,891.698 629.851,891.955C631.429,893.438 633.996,894.999 635.401,897.137C636.487,898.788 636.981,900.74 636.179,903.17C635.568,905.019 633.961,906.764 631.838,908.302C627.91,911.147 622.195,913.372 619.341,914.803ZM602.028,850.56C602.014,850.551 601.999,850.542 601.983,850.534L602.028,850.56Z"/>
        </g>
        <g transform="matrix(1.17493,0,0,1.17493,-108.117,-60.9084)">
            <path d="M885.393,721.824L886.177,721.581C888.51,720.852 894.326,719.001 895.94,718.383C901.975,716.068 908.019,713.505 914.211,711.481C918.413,710.107 922.683,708.984 927.06,708.34C928.829,708.08 932.073,707.455 934.671,707.767C936.227,707.954 937.572,708.492 938.497,709.398C939.498,710.378 940.096,711.783 940.386,713.399C940.874,716.11 940.44,719.503 940.463,721.607C940.508,725.913 939.606,730.119 938.231,734.266C935.269,743.203 929.987,751.847 927.874,760.695C927.806,760.983 927.937,761.161 928.107,761.309C928.686,761.812 929.485,762.167 930.212,762.579C931.001,763.024 931.732,763.514 932.307,764.076C935.12,766.83 938.094,769.82 940.343,773.224C941.951,775.656 943.182,778.302 943.795,781.208C944.962,786.735 941.77,793.331 937.157,795.824C933.752,797.664 929.586,797.607 925.598,793.702C924.484,792.588 924.484,790.779 925.598,789.665C926.712,788.551 928.52,788.551 929.634,789.665C930.672,790.725 931.692,791.306 932.718,791.364C933.876,791.429 934.95,790.88 935.853,790.059C937.896,788.2 939.197,785.016 938.67,782.233C938.241,779.96 937.302,777.89 936.091,775.97C934.102,772.817 931.419,770.05 928.903,767.48C928.299,766.864 927.351,766.454 926.526,765.949C925.541,765.346 924.664,764.664 924.084,763.832C923.308,762.721 922.901,761.372 923.372,759.57C925.707,750.635 931.217,741.963 934.416,732.956C935.733,729.249 936.648,725.485 936.689,721.607C936.707,719.897 937.09,717.293 936.934,714.963C936.853,713.752 936.693,712.606 935.998,711.896C935.414,711.3 934.412,711.176 933.356,711.125C931.242,711.024 928.881,711.453 927.508,711.625C923.298,712.154 919.182,713.149 915.125,714.381C908.939,716.258 902.89,718.676 896.854,720.846C895.202,721.44 889.256,723.197 886.871,723.887C886.442,724.011 886.127,724.101 885.972,724.144C884.365,724.589 884.585,722.76 884.928,722.119C884.939,722.089 884.956,722.059 884.981,722.032C885.023,721.969 885.066,721.927 885.107,721.911C885.126,721.904 885.184,721.883 885.285,721.852L885.393,721.824Z"/>
        </g>
        <g transform="matrix(1.17493,0,0,1.17493,-108.117,-60.9084)">
            <path d="M905.96,751.806C905.978,752.011 906.003,752.266 906.035,752.494C906.603,756.529 909.103,766.976 909.347,768.177C910.404,773.366 911.407,778.551 912.303,783.754C913.201,788.969 913.992,794.201 914.626,799.474C916.603,815.928 917.103,833.052 916.304,850.12C915.505,867.208 913.399,884.234 910.167,900.47C909.069,905.99 906.651,918.076 901.558,925.319C898.686,929.402 894.959,931.994 890.419,932.035C888.844,932.035 887.565,930.756 887.565,929.18C887.565,927.605 888.844,926.326 890.419,926.326C894.148,926.359 896.717,923.186 898.806,919.347C902.402,912.737 904.256,903.823 905.211,899.438C908.683,883.482 911.058,866.727 912.146,849.888C913.235,833.044 913.043,816.121 911.38,799.835C910.846,794.605 910.155,789.412 909.358,784.235C908.559,779.045 907.654,773.871 906.695,768.693C906.469,767.477 904.141,756.891 903.64,752.81C903.533,751.933 903.519,751.296 903.573,751.004C903.691,750.358 904.077,750.088 904.339,749.975C904.682,749.829 905.312,749.685 905.886,750.402C906.222,750.813 906.237,751.383 905.96,751.806ZM904.124,752.001C904.215,752.094 904.308,752.16 904.399,752.205L904.304,752.149C904.273,752.125 904.241,752.102 904.209,752.079L904.124,752.001Z"/>
        </g>
        <g transform="matrix(1.17493,0,0,1.17493,-108.117,-60.9084)">
            <path d="M1020.7,665.446C1020.3,665.84 1019.68,665.917 1019.2,665.599C1018.65,665.236 1018.5,664.496 1018.86,663.947C1019.49,662.989 1020.14,662.642 1020.62,662.555C1021.34,662.425 1022.03,662.713 1022.55,663.48C1023.48,664.842 1023.78,668.559 1023.57,669.491C1023.1,671.651 1022.07,673.85 1020.75,675.955C1018.88,678.95 1016.45,681.755 1014.4,683.967C1011.74,686.844 1008.89,689.544 1005.97,692.165C999.25,698.19 992.098,703.789 985.753,710.181C985.53,710.406 981.798,713.826 979.012,716.704C979.961,716.206 980.708,715.781 980.8,715.737L999.225,706.77C1010.11,701.276 1021.28,696.126 1032.62,691.373C1043.96,686.619 1055.47,682.265 1067.03,678.364C1068.59,677.838 1080.3,673.339 1085.38,674.315C1086.85,674.598 1087.91,675.282 1088.53,676.244C1089.1,677.129 1089.36,678.327 1088.97,679.931C1088.53,681.695 1087.65,683.488 1086.52,685.246C1084.25,688.765 1080.93,692.161 1078.75,694.907C1075.37,699.164 1071.96,703.412 1068.51,707.623C1065.05,711.842 1061.55,716.023 1057.99,720.141C1045.09,735.064 1032.02,749.851 1018.67,764.377C1005.31,778.914 991.67,793.187 977.623,807.071C970.012,814.594 962.349,822.144 954.47,829.442C949.192,834.332 943.817,839.107 938.296,843.688C937.091,844.688 928.405,851.063 924.038,852.798C922.032,853.596 920.431,853.413 919.615,852.985C918.482,852.39 917.627,851.337 917.841,849.419C917.977,848.195 919.159,845.632 922.414,841.45C923.386,840.211 925.182,839.994 926.421,840.966C927.641,841.923 927.87,843.677 926.951,844.913C930.444,842.723 934.08,840.018 934.793,839.435C940.271,834.957 945.607,830.286 950.847,825.503C958.738,818.301 966.415,810.847 974.041,803.42C988.133,789.695 1001.83,775.579 1015.24,761.199C1028.66,746.806 1041.81,732.149 1054.79,717.356C1058.35,713.292 1061.86,709.164 1065.33,705C1068.8,700.83 1072.23,696.624 1075.62,692.408C1077.47,690.113 1080.16,687.361 1082.3,684.456C1083.62,682.663 1084.75,680.822 1085.21,678.992C1085.29,678.694 1085.42,678.477 1085.29,678.329C1084.92,677.902 1084.15,677.965 1083.25,677.979C1082.51,677.99 1081.7,678.075 1080.84,678.21C1075.72,679.015 1069.29,681.519 1068.2,681.879C1056.69,685.667 1045.23,689.907 1033.93,694.544C1022.63,699.183 1011.5,704.219 1000.64,709.598L982.089,718.458C981.885,718.553 978.674,720.324 976.716,720.988C976.019,721.225 975.425,721.326 975.04,721.307C974.464,721.278 974.062,721.052 973.796,720.784C973.5,720.486 973.298,720.087 973.321,719.545C973.337,719.177 973.606,718.435 974.286,717.569C976.488,714.763 983.426,708.477 983.738,708.167C990.17,701.782 997.404,696.198 1004.21,690.186C1007.09,687.641 1009.9,685.017 1012.53,682.219C1014.5,680.125 1016.84,677.473 1018.65,674.631C1019.82,672.785 1020.76,670.862 1021.19,668.962C1021.3,668.493 1020.91,666.483 1020.7,665.446Z"/>
        </g>
        <g transform="matrix(1.17493,0,0,1.17493,-108.117,-60.9084)">
            <path d="M982.332,736.774L982.558,736.716C983.118,736.585 985.479,736.065 985.98,736.027C987.313,735.924 988.837,735.841 990.316,735.917C991.369,735.97 992.399,736.106 993.334,736.36C996.106,737.114 998.863,737.986 1001.6,738.935C1005.68,740.35 1009.7,741.938 1013.67,743.563C1023.41,747.56 1033.15,752.126 1042.65,757.144C1052.15,762.16 1061.41,767.628 1070.22,773.432C1077.66,778.332 1084.62,783.897 1091.14,789.932C1097.65,795.959 1103.74,802.457 1109.45,809.23C1112.82,813.236 1117.19,820.582 1122.06,825.665C1123.67,827.345 1125.32,828.774 1127.02,829.653C1127.48,829.12 1127.95,828.608 1128.18,828.462C1129.46,827.648 1130.05,827.3 1130.84,826.949C1131.45,826.678 1132.19,826.41 1133.54,825.917C1138.82,823.984 1144.15,822.004 1149.52,820.186C1153.13,818.962 1156.77,817.812 1160.41,816.796C1164.64,815.617 1168.93,814.517 1173.23,813.466C1179.65,811.899 1186.12,810.442 1192.51,808.994C1200.36,807.216 1208.25,805.775 1216.17,804.55C1224.07,803.328 1232.01,802.324 1239.97,801.417C1241.54,801.248 1242.94,802.382 1243.11,803.949C1243.28,805.515 1242.15,806.924 1240.58,807.093C1232.68,807.902 1224.81,808.808 1216.97,809.93C1209.15,811.049 1201.37,812.38 1193.62,814.043C1187.24,815.413 1180.79,816.791 1174.38,818.28C1170.11,819.27 1165.87,820.309 1161.67,821.427C1158.1,822.38 1154.54,823.464 1150.99,824.621C1145.64,826.367 1140.32,828.274 1135.06,830.134C1133.85,830.564 1133.17,830.792 1132.62,831.029C1132.03,831.284 1131.59,831.551 1130.68,832.112C1130.5,832.335 1129.83,833.155 1129.61,833.441C1128.58,834.791 1127.06,834.42 1127,834.401C1124.24,833.461 1121.51,831.348 1118.95,828.616C1114.07,823.408 1109.71,815.926 1106.33,811.826C1100.8,805.114 1094.9,798.666 1088.57,792.677C1082.26,786.705 1075.52,781.186 1068.3,776.313C1059.64,770.468 1050.53,764.952 1041.18,759.88C1031.82,754.801 1022.23,750.167 1012.61,746.096C1008.71,744.446 1004.75,742.83 1000.73,741.386C998.062,740.426 995.372,739.541 992.664,738.772C991.895,738.554 991.045,738.439 990.177,738.385C988.805,738.3 987.391,738.364 986.153,738.446C985.741,738.473 983.923,738.861 983.241,739.011L983.208,739.02C980.498,739.625 979.595,739.192 979.768,738.531C979.42,738.025 980.008,737.319 982.332,736.774Z"/>
        </g>
        <g transform="matrix(1.17493,0,0,1.17493,-108.117,-60.9084)">
            <path d="M979.547,847.098C979.554,847.001 979.575,846.902 979.609,846.806C980.678,843.545 982.918,843.623 981.849,847.842C981.48,849.298 980.397,853.337 980.329,854.716C980.161,858.092 979.605,861.36 978.779,864.571C977.962,867.747 976.871,870.861 975.62,873.964C974.083,877.779 972.361,881.607 970.482,885.362C968.598,889.126 966.552,892.808 964.373,896.32C961.427,901.065 957.673,905.568 954.508,910.31C953.216,912.246 952.035,914.225 951.062,916.281C950.357,917.69 948.641,918.262 947.232,917.557C945.823,916.853 945.251,915.137 945.956,913.728C947.143,911.478 948.553,909.321 950.09,907.22C953.431,902.657 957.351,898.359 960.475,893.782C962.731,890.477 964.864,887.002 966.844,883.441C968.833,879.863 970.672,876.206 972.331,872.555C973.655,869.643 974.827,866.717 975.739,863.719C976.646,860.734 977.304,857.687 977.6,854.521C977.738,853.042 979.053,848.745 979.518,847.198L979.547,847.098Z"/>
        </g>
        <g transform="matrix(1.17493,0,0,1.17493,-108.117,-60.9084)">
            <path d="M1067.8,818.882C1069.75,817.957 1070.89,818.218 1071.4,819.001C1072.64,819.684 1072.88,821.24 1070.28,823.695C1070.22,823.749 1070.16,823.801 1070.11,823.852C1069.75,824.176 1069.35,824.516 1068.89,824.871C1068.62,825.079 1068.31,825.228 1068,825.322C1066.9,826.072 1065.72,826.869 1065.39,827.051L1054.71,832.421C1043.73,838.026 1032.86,843.851 1021.93,849.549C1017.23,851.998 1012.52,854.421 1007.78,856.794C1005.76,857.81 1003.33,859.077 1000.87,860.056C999.148,860.741 997.408,861.29 995.761,861.534C994.571,861.711 990.874,861.942 989.16,860.994C987.855,860.272 987.144,859.121 988.152,857.215C988.448,856.628 989.166,856.392 989.753,856.689C990.34,856.986 990.575,857.704 990.278,858.291C989.914,859.045 990.771,859.007 991.507,859.084C992.934,859.235 994.642,859.011 995.32,858.886C996.761,858.619 998.271,858.07 999.766,857.413C1002.11,856.383 1004.41,855.07 1006.33,854.018C1010.96,851.486 1015.56,848.903 1020.16,846.297C1030.89,840.203 1041.56,833.986 1052.34,827.983L1062.67,822.326C1063.14,822.044 1065.55,820.223 1066.49,819.542C1066.88,819.258 1067.33,819.038 1067.8,818.882Z"/>
        </g>
        <g transform="matrix(1.17493,0,0,1.17493,-108.117,-60.9084)">
            <path d="M1039.44,880.66C1039.83,877.622 1040.05,874.557 1040.13,871.478C1040.42,860.271 1038.91,848.887 1037.32,838.002C1037.13,836.719 1036.9,835.448 1036.65,834.183C1036.06,831.175 1035.34,828.2 1034.75,825.188L1034.45,820.173C1033.96,819.732 1033.92,818.977 1034.37,818.49C1034.81,818.002 1035.56,817.965 1036.05,818.406C1036.38,818.702 1036.69,819.314 1036.83,820.149C1037.09,821.593 1036.97,823.966 1037.12,824.713C1037.74,827.72 1038.47,830.688 1039.09,833.692C1039.36,834.996 1039.6,836.306 1039.81,837.629C1041.5,848.65 1043.1,860.179 1042.88,871.54C1042.83,874.307 1042.67,877.064 1042.37,879.801C1043.9,879.37 1045.38,878.977 1046.79,878.617C1048.32,878.23 1055.58,875.693 1059.5,876.121C1061.72,876.363 1063.11,877.444 1063.47,879.2C1064.09,882.269 1063.08,885.562 1061.25,888.689C1058.9,892.692 1055.23,896.44 1052.81,898.996C1045.62,906.598 1038.26,913.966 1030.77,921.201C1023.29,928.426 1015.67,935.517 1007.97,942.574C1006.83,943.616 1005.68,944.666 1004.53,945.708C1005.35,945.436 1006.18,945.172 1007,944.917C1010.94,943.701 1014.96,942.683 1019.23,941.866C1027.57,940.273 1036.08,939.183 1044.64,938.336C1057.35,937.078 1070.18,936.359 1082.73,935.311C1087.26,934.932 1091.83,934.552 1096.39,934.393C1098.65,934.314 1100.91,934.29 1103.17,934.347C1101.7,933.369 1100.21,932.362 1098.86,931.427C1096.22,929.605 1094.08,928.006 1093.42,927.316C1089.22,922.96 1084.65,917.503 1082.49,910.743C1081.17,906.644 1080.73,902.073 1081.74,896.974C1082.05,895.43 1083.55,894.429 1085.1,894.74C1086.64,895.051 1087.64,896.557 1087.33,898.102C1086.27,903.264 1087.1,907.757 1088.84,911.668C1090.93,916.378 1094.3,920.273 1097.38,923.52C1098.08,924.252 1100.73,926.109 1103.67,928.138C1107.93,931.072 1112.81,934.284 1114.04,935.067L1116.72,936.07C1118.13,936.46 1118.96,937.915 1118.58,939.327C1118.2,940.739 1116.75,941.578 1115.34,941.205L1112.29,940.431C1111.42,940.235 1110.54,940.1 1109.65,939.999C1108.23,939.837 1106.79,939.76 1105.37,939.677C1102.43,939.503 1099.49,939.49 1096.55,939.572C1092.07,939.697 1087.59,940.041 1083.14,940.381C1070.6,941.34 1057.79,941.968 1045.1,943.134C1036.67,943.908 1028.3,944.919 1020.09,946.429C1015.98,947.184 1012.12,948.134 1008.33,949.275C1004.5,950.429 1000.73,951.777 996.86,953.311C996.139,953.596 995.449,953.914 994.78,954.266C994.384,954.475 993.994,954.696 993.61,954.93C992.693,955.617 991.797,956.231 991.168,956.53C989.591,957.28 988.408,956.71 987.905,956.21C986.941,955.253 987.042,954.327 987.329,953.6C987.501,953.161 987.851,952.668 988.508,952.313C988.877,952.113 990.126,951.77 990.416,951.692C991.926,950.557 994.444,948.662 994.668,948.484C996.095,947.35 997.498,946.171 998.884,944.969C1000.98,943.147 1003.05,941.272 1005.1,939.42C1012.83,932.442 1020.47,925.429 1027.97,918.281C1035.47,911.14 1042.84,903.865 1050.04,896.357C1052.32,893.981 1055.81,890.52 1058.03,886.789C1059.38,884.532 1060.29,882.192 1059.87,879.963C1059.82,879.935 1059.73,879.888 1059.66,879.867C1059.49,879.812 1059.3,879.777 1059.09,879.753C1057.97,879.622 1056.52,879.811 1055.04,880.099C1051.87,880.721 1048.6,881.847 1047.66,882.079C1045.83,882.531 1043.88,883.038 1041.88,883.612C1041.32,887.184 1040.52,890.715 1039.42,894.183C1038.11,898.305 1035.54,905.949 1031.51,911.091C1028.39,915.083 1024.4,917.563 1019.59,916.529C1014.41,915.416 1009.59,911.51 1007.91,906.952C1006.69,903.61 1007.05,899.914 1010.04,896.577C1013.52,892.678 1018.31,889.453 1023.6,886.806C1028.68,884.259 1034.22,882.246 1039.44,880.66ZM1038.85,884.511C1034.28,885.928 1029.52,887.68 1025.11,889.85C1020.2,892.265 1015.73,895.19 1012.48,898.775C1009.87,901.651 1010.12,904.937 1011.82,907.65C1013.59,910.472 1016.84,912.719 1020.25,913.48C1023.86,914.282 1026.76,912.193 1029.12,909.211C1032.95,904.387 1035.39,897.172 1036.65,893.293C1037.59,890.408 1038.31,887.476 1038.85,884.511Z"/>
        </g>
        <g transform="matrix(3.63353,0,0,3.434,-5827.21,-2902.8)">
            <path d="M1731.17,956.735C1731.26,957.265 1730.92,957.946 1730.5,958.646C1729.81,959.813 1728.83,960.977 1728.41,961.571C1726.59,964.127 1724.7,966.632 1722.7,969.057C1720.72,971.463 1718.64,973.788 1716.45,976.006C1715.9,976.561 1714.48,978.361 1713.06,979.76C1712.58,980.234 1712.1,980.659 1711.65,980.957C1711.38,981.14 1711.15,981.289 1710.94,981.286C1710.43,981.286 1710.02,981.724 1710.02,982.263C1710.02,982.802 1710.43,983.239 1710.94,983.239C1711.65,983.23 1712.65,982.663 1713.64,981.736C1715.24,980.244 1716.98,977.907 1717.6,977.248C1719.77,974.938 1721.83,972.523 1723.78,970.028C1725.74,967.526 1727.6,964.946 1729.37,962.316C1729.86,961.595 1731.09,960.068 1731.75,958.676C1732.12,957.889 1732.31,957.132 1732.2,956.54C1732.15,956.239 1731.88,956.038 1731.6,956.092C1731.31,956.146 1731.12,956.434 1731.17,956.735Z"/>
        </g>
        <g transform="matrix(3.63353,0,0,3.434,-5827.21,-2902.8)">
            <path d="M1741.22,968.62C1740.16,968.834 1739.08,969.062 1738.97,969.089C1737.22,969.513 1732.83,970.909 1729.48,970.788C1727.68,970.723 1726.18,970.204 1725.4,969.019C1725.24,968.768 1725.3,968.422 1725.53,968.247C1725.77,968.072 1726.1,968.134 1726.26,968.384C1727.07,969.587 1728.86,969.746 1730.81,969.59C1733.82,969.351 1737.22,968.227 1738.69,967.85C1738.88,967.803 1741.62,967.192 1742.73,966.987C1742.95,966.946 1743.11,966.921 1743.19,966.914C1743.81,966.864 1743.9,967.481 1743.9,967.58C1743.91,967.764 1743.83,968.013 1743.62,968.265C1743.38,968.558 1742.87,968.952 1742.42,969.324C1742.2,969.5 1741.99,969.64 1741.94,969.773C1741.32,971.349 1740.57,972.828 1739.76,974.271C1738.57,976.385 1737.25,978.42 1736.02,980.578L1717.07,1014.06C1716.81,1014.52 1716.24,1014.67 1715.81,1014.39C1715.37,1014.11 1715.23,1013.51 1715.49,1013.05L1734.81,979.795C1736.06,977.654 1737.4,975.637 1738.61,973.539C1739.41,972.162 1740.14,970.75 1740.76,969.243C1740.83,969.067 1740.99,968.847 1741.22,968.62Z"/>
        </g>
        <g transform="matrix(3.63353,0,0,3.434,-5827.21,-2902.8)">
            <path d="M1722.08,984.996C1723.05,985.741 1724.19,986.661 1725.37,987.453C1726.2,988.016 1727.05,988.499 1727.87,988.83C1728.36,988.992 1728.88,988.706 1729.03,988.192C1729.18,987.678 1728.91,987.129 1728.43,986.967C1727.68,986.77 1726.89,986.439 1726.11,986.041C1724.88,985.418 1723.67,984.665 1722.64,984.062C1722.4,983.898 1722.07,983.974 1721.92,984.232C1721.76,984.49 1721.84,984.832 1722.08,984.996Z"/>
        </g>
        <g transform="matrix(3.63353,0,0,3.434,-5827.21,-2902.8)">
            <path d="M1757.13,924.845C1756.74,925.855 1756.57,926.876 1756.49,927.911C1756.37,929.377 1756.46,930.871 1756.38,932.399C1756.2,935.754 1756.07,939.041 1756.15,942.337C1756.2,944.538 1756.35,946.744 1756.63,948.978C1757.4,955.135 1757.76,961.322 1758.43,967.483C1758.71,970.137 1759.06,972.785 1759.52,975.424C1760.37,980.353 1762.17,985.051 1763.34,989.912C1763.62,991.1 1763.87,992.298 1764.05,993.512C1764.86,998.838 1765.82,1003.06 1766.5,1007.75C1766.78,1009.66 1767.02,1011.66 1767.17,1013.84C1767.65,1020.75 1768.03,1026.81 1768.21,1032.84C1768.4,1038.91 1768.38,1044.96 1768.08,1051.84C1768.06,1052.38 1768.45,1052.83 1768.96,1052.86C1769.47,1052.88 1769.9,1052.46 1769.92,1051.92C1770.19,1044.99 1770.16,1038.89 1769.94,1032.78C1769.72,1026.72 1769.3,1020.64 1768.77,1013.71C1768.6,1011.48 1768.35,1009.44 1768.05,1007.49C1767.34,1002.8 1766.35,998.585 1765.51,993.26C1765.31,992.001 1765.05,990.759 1764.75,989.528C1763.56,984.706 1761.73,980.052 1760.85,975.16C1760.39,972.555 1760.03,969.941 1759.73,967.321C1759.02,961.157 1758.62,954.966 1757.81,948.807C1757.52,946.62 1757.37,944.459 1757.3,942.302C1757.2,939.039 1757.31,935.784 1757.47,932.46C1757.54,930.941 1757.44,929.457 1757.55,928C1757.61,927.075 1757.76,926.161 1758.1,925.257C1758.21,924.973 1758.08,924.65 1757.81,924.537C1757.54,924.423 1757.24,924.562 1757.13,924.845Z"/>
        </g>
        <g transform="matrix(3.63353,0,0,3.434,-5827.21,-2902.8)">
            <path d="M1782.34,986.933C1781.99,986.864 1781.42,986.889 1781.37,986.887C1780.41,986.851 1779.46,986.819 1778.52,986.808C1777.89,986.8 1777.26,986.802 1776.63,986.818C1774.2,986.878 1771.57,986.493 1769.05,986.509C1768,986.516 1766.98,986.597 1766,986.818C1765.5,986.918 1765.01,986.569 1764.92,986.04C1764.83,985.51 1765.15,984.999 1765.65,984.899C1766.76,984.706 1767.91,984.666 1769.08,984.717C1771.59,984.826 1774.2,985.341 1776.63,985.401C1777.28,985.417 1777.92,985.447 1778.56,985.486C1779.52,985.545 1780.47,985.624 1781.43,985.709C1781.53,985.717 1782.69,985.789 1782.99,986.002C1783.31,986.229 1783.38,986.519 1783.23,986.834C1783.11,987.112 1782.8,987.233 1782.54,987.105C1782.45,987.064 1782.39,987.005 1782.34,986.933Z"/>
        </g>
    </g>
</svg>
